<svg width="30" height="378" viewBox="0 0 30 378" fill="none" xmlns="http://www.w3.org/2000/svg">
<path d="M18.5235 58V45.008H11.4835V58H6.6195V13.2H11.4835V40.4H18.5235V13.2H23.3875V58H18.5235Z" fill="#FF4C00"/>
<path d="M5.83825 77.2H10.7023V82.512L10.0623 115.984L16.3343 82.64L17.4223 77.2H25.1663V122H20.3022V116.176L20.9423 82.96L14.7983 115.984L13.5823 122H5.83825V77.2Z" fill="#FF4C00"/>
<path d="M12.5753 174.112L12.8953 159.136L5.59925 180H0.54325L8.35125 157.728L0.86325 135.2H5.85525L12.8953 156.384L12.5753 140.576V135.2H17.4393V140.576L17.0553 156.384L24.1593 135.2H29.1513L21.5993 157.728L29.4713 180H24.4153L17.0553 159.136L17.4393 174.112V180H12.5753V174.112Z" fill="#FF4C00"/>
<path d="M18.5235 244V231.008H11.4835V244H6.6195V199.2H11.4835V226.4H18.5235V199.2H23.3875V244H18.5235Z" fill="#FF4C00"/>
<path d="M5.83825 263.2H10.7023V268.512L10.0623 301.984L16.3343 268.64L17.4223 263.2H25.1663V308H20.3022V302.176L20.9423 268.96L14.7983 301.984L13.5823 308H5.83825V263.2Z" fill="#FF4C00"/>
<path d="M5.83825 327.2H10.7023V332.512L10.0623 365.984L16.3343 332.64L17.4223 327.2H25.1663V372H20.3022V366.176L20.9423 332.96L14.7983 365.984L13.5823 372H5.83825V327.2ZM9.16625 318.304H13.2623V318.56C13.2623 319.584 14.2863 320.48 15.4383 320.48C16.6543 320.48 17.6783 319.584 17.6783 318.56V318.304H21.7743V318.688C21.7743 321.952 18.8943 324.448 15.4383 324.448C12.0463 324.448 9.16625 321.952 9.16625 318.688V318.304Z" fill="#FF4C00"/>
</svg>
